<?xml version="1.0" standalone="no"?>
<!DOCTYPE svg PUBLIC "-//W3C//DTD SVG 20010904//EN"
 "http://www.w3.org/TR/2001/REC-SVG-20010904/DTD/svg10.dtd">
<svg version="1.0" xmlns="http://www.w3.org/2000/svg"
 width="1080.000000pt" height="1080.000000pt" viewBox="0 0 1080.000000 1080.000000"
 preserveAspectRatio="xMidYMid meet">

<g transform="translate(0.000000,1080.000000) scale(0.100000,-0.100000)"
fill="#000000" stroke="none">
<path d="M6780 5853 c-1 -480 -1 -487 -19 -442 -52 134 -178 237 -333 274 -83
19 -215 19 -292 -1 -144 -37 -283 -149 -347 -280 l-34 -69 -3 168 -2 167 -165
0 -165 0 0 -40 c0 -22 -3 -40 -7 -40 -5 0 -26 14 -47 30 -87 66 -252 97 -376
71 -160 -33 -293 -154 -356 -324 l-23 -62 0 183 -1 182 -165 0 -165 0 0 -490
0 -490 165 0 165 0 2 183 3 182 22 -62 c77 -222 277 -349 517 -328 99 8 186
35 233 71 l36 27 -6 -75 c-6 -89 -22 -124 -77 -170 -100 -87 -288 -78 -390 18
l-48 45 -137 -68 -136 -69 39 -60 c96 -149 250 -216 497 -217 192 0 312 34
425 124 62 49 102 103 132 178 21 51 23 77 28 306 l5 249 35 -69 c104 -205
332 -318 577 -286 165 21 256 64 352 167 l61 65 0 -106 0 -105 170 0 170 0 0
825 0 825 -170 0 -170 0 0 -487z m-382 -401 c18 -13 41 -41 52 -62 37 -72 42
-70 -166 -70 l-187 0 6 37 c7 41 47 88 92 109 48 23 163 14 203 -14z m-1100
-61 c81 -42 122 -113 122 -213 0 -135 -93 -228 -226 -228 -135 0 -228 94 -228
230 0 96 45 169 129 213 44 23 156 22 203 -2z m1482 -361 l0 -110 -118 59
-117 59 -55 -44 c-155 -123 -400 -52 -400 117 l0 29 345 0 345 0 0 -110z"/>
<path d="M4365 6261 c-110 -49 -149 -192 -80 -290 32 -47 112 -91 165 -91 54
0 133 44 166 92 25 35 29 51 29 109 0 59 -4 73 -30 111 -56 80 -161 110 -250
69z"/>
<path d="M3715 5687 c-60 -20 -102 -44 -146 -84 l-39 -35 0 51 0 51 -170 0
-170 0 0 -490 0 -490 170 0 170 0 0 303 0 303 29 46 c20 32 44 53 82 72 80 40
144 33 202 -22 62 -58 62 -59 65 -394 l3 -308 165 0 164 0 0 364 c0 398 -1
408 -60 489 -37 52 -107 100 -185 128 -75 26 -223 35 -280 16z"/>
<path d="M7337 5086 c-154 -42 -208 -234 -99 -349 47 -50 97 -70 168 -65 77 5
131 38 171 105 94 161 -58 358 -240 309z"/>
</g>
</svg>
